<svg fill="none" height="158" viewBox="0 0 1255 158" width="1255" xmlns="http://www.w3.org/2000/svg"><g fill="#000"><path d="m28.4039 6.11548h-28.4039c0 81.42272 65.1618 147.68352 145.918 147.68352h1.114v-28.638c-.557 0-.557 0-1.114 0-64.6049 0-117.5141-53.3458-117.5141-119.04552z"/><path d="m145.918 96.5227h1.114v-28.0768c-.557 0-.557 0-1.114 0-33.973 0-61.8203-28.0767-61.8203-62.33042h-27.847c.557 49.97672 40.6566 90.40722 89.6673 90.40722z"/><path d="m111.944 6.11548c0 19.09222 15.595 34.81522 33.974 34.81522h1.113v-34.81522z"/><path d="m1235.8 0c10.4 0 18.9 8.50043 18.9 18.8966 0 10.3962-8.5 18.8355-18.9 18.8355-10.39 0-18.83-8.4393-18.83-18.8355 0-10.39617 8.44-18.8966 18.83-18.8966zm0 33.6348c8.2 0 14.74-6.6047 14.74-14.7382s-6.54-14.73812-14.74-14.73812c-8.19 0-14.74 6.54352-14.74 14.73812 0 8.1947 6.61 14.7382 14.74 14.7382zm-7.03-23.3609c0-.55039.43-.97847.98-.97847h8.13c3.24 0 6.42 2.38497 6.42 6.48237 0 3.4858-2.08 5.0146-3.73 5.8096l2.39 5.4427c.3.7339-.19 1.4066-.92 1.4066h-2.81c-.43 0-.8-.3669-.92-.7339l-2.32-5.8708h-2.76v5.6262c0 .5504-.42.9785-.98.9785h-2.56c-.55 0-.98-.4893-.98-.9785v-17.2455zm8.56 7.7054c1.28 0 2.14-.9173 2.14-2.1404s-.92-2.1404-2.14-2.1404h-4.16v4.2808z"/><path d="m207.924 12.1817c0-2.1334 1.667-4.00006 4-4.00006h85.535c2.333 0 4 1.86666 4 4.00006v17.2002c0 2.1334-1.667 4.0001-4 4.0001h-62.201v39.5338h51.934c2.133 0 4 1.8667 4 4.0001v17.2002c0 2.1333-1.867 4-4 4h-51.934v53.2009c0 2.133-1.867 4-4 4h-19.334c-2.333 0-4-1.867-4-4z"/><path d="m326.459 12.1817c0-2.1334 1.667-4.00006 4.001-4.00006h19.333c2.067 0 4 1.86666 4 4.00006v117.9353h53.601c2.333 0 4 1.866 4 4v17.2c0 2.133-1.667 4-4 4h-76.934c-2.334 0-4.001-1.867-4.001-4z"/><path d="m432.595 12.1817c0-2.1334 1.667-4.00006 4-4.00006h85.535c2.333 0 4 1.86666 4 4.00006v17.2002c0 2.1334-1.667 4.0001-4 4.0001h-62.201v34.4671h51.934c2.133 0 4 1.8667 4 4v17.4669c0 2.3334-1.867 4.0001-4 4.0001h-51.934v36.8009h62.201c2.333 0 4 1.866 4 4v17.2c0 2.133-1.667 4-4 4h-85.535c-2.333 0-4-1.867-4-4z"/><path d="m556.196 12.1817c0-2.1334 1.666-4.00006 4-4.00006h85.534c2.334 0 4 1.86666 4 4.00006v17.2002c0 2.1334-1.666 4.0001-4 4.0001h-62.201v34.4671h51.934c2.134 0 4.001 1.8667 4.001 4v17.4669c0 2.3334-1.867 4.0001-4.001 4.0001h-51.934v36.8009h62.201c2.334 0 4 1.866 4 4v17.2c0 2.133-1.666 4-4 4h-85.534c-2.334 0-4-1.867-4-4z"/><path d="m699.529 33.382h-32.134c-2.333 0-4-1.8667-4-4.0001v-17.2002c0-2.1334 1.667-4.00006 4-4.00006h91.868c2.333 0 4 1.86666 4 4.00006v17.2002c0 2.1334-1.667 4.0001-4 4.0001h-32.134v117.935c0 2.133-1.867 4-4 4h-19.533c-2.134 0-4.001-1.867-4.001-4v-117.935z"/><path d="m848.733 6.11548c21.2 0 36.534 6.73342 50.867 19.53362 1.867 1.6666 1.867 4.2.2 5.8667l-12.8 13.2668c-1.467 1.6667-3.6 1.6667-5.267 0-8.8-7.8001-20.6-12.4001-32.333-12.4001-26.934 0-46.868 22.4669-46.868 49.0006 0 26.5339 20.201 48.5339 47.068 48.5339 12.6 0 23.333-4.867 32.133-12 1.667-1.467 4-1.267 5.267 0l13 13.467c1.667 1.466 1.267 4.2-.2 5.666-14.267 13.867-32.334 20.401-51.067 20.401-42.067 0-75.868-33.401-75.868-75.4679 0-42.0672 33.867-75.86762 75.868-75.86762z"/><path d="m991.603 6.11548c42.067 0 75.667 33.86712 75.667 75.86762 0 42.0009-33.6 75.4679-75.667 75.4679s-75.468-33.401-75.468-75.4679c0-42.0672 33.401-75.86762 75.468-75.86762zm0 124.00152c26.467 0 48.337-21.667 48.337-48.1339 0-26.467-21.87-48.5339-48.337-48.5339s-48.134 22.0669-48.134 48.5339c0 26.4669 21.667 48.1339 48.134 48.1339z"/><path d="m1094.8 12.1817c0-2.1334 1.67-4.00006 4-4.00006h60.13c25.21 0 45.81 20.20026 45.81 45.20056 0 19.3336-12.8 35.0671-31.14 42.4672l28.8 53.4006c1.47 2.733 0 6.067-3.6 6.067h-22.06c-1.87 0-2.94-1.067-3.34-1.867l-27.93-55.6672h-23.34v53.6002c0 2.134-1.86 4.001-4 4.001h-19.33c-2.33 0-4-1.867-4-4.001zm61.8 63.0675c11.14 0 20.8-9.6668 20.8-21.467 0-11.1335-9.66-20.4002-20.8-20.4002h-34.27v41.8005h34.27z"/></g></svg>