<svg width="19" height="19" viewBox="0 0 19 19" fill="none" xmlns="http://www.w3.org/2000/svg">
<path d="M9.49998 1C9.16457 1 8.89273 1.2719 8.89273 1.60728V8.89269H1.60729C1.27194 8.89269 1 9.1646 1 9.49996C1 9.83541 1.27194 10.1073 1.60729 10.1073H8.89273V17.3927C8.89273 17.7282 9.16457 18 9.49998 18C9.83543 18 10.1073 17.7282 10.1073 17.3927V10.1073H17.3927C17.7281 10.1073 18 9.8354 18 9.49996C18 9.16461 17.7281 8.89269 17.3927 8.89269H10.1073V1.60728C10.1073 1.2719 9.83541 1 9.49998 1Z" fill="#001F54" stroke="#001F54" stroke-width="1.5"/>
</svg>
