<svg width="24" height="24" viewBox="0 0 24 24" fill="none" xmlns="http://www.w3.org/2000/svg">
<path d="M13.8695 12.0084L23.6199 2.25512C24.1261 1.74876 24.1261 0.92271 23.6199 0.389794C23.1137 -0.143123 22.2879 -0.11657 21.7551 0.389794L12.0048 10.143L2.25445 0.389794C1.74823 -0.11657 0.922434 -0.11657 0.389677 0.389794C-0.14308 0.896157 -0.116535 1.7222 0.389677 2.25512L10.14 12.0084L0.389677 21.7616C-0.116535 22.268 -0.116535 23.094 0.389677 23.6269C0.656156 23.8935 0.975762 24 1.32218 24C1.6686 24 1.98819 23.8667 2.25468 23.6269L12.005 13.8737L21.7553 23.6269C22.0218 23.8935 22.3414 24 22.6878 24C23.0343 24 23.3538 23.8667 23.6203 23.6269C24.1266 23.1206 24.1266 22.2945 23.6203 21.7616L13.8695 12.0084Z" fill="black"/>
</svg>
